<svg id="Layer_1" data-name="Layer 1" xmlns="http://www.w3.org/2000/svg" viewBox="0 0 21.21 19.95"><defs><style>.cls-1{fill:#707582;}</style></defs><title>VectorSmartObject_d55282a5-29ce-4b19-85f7-b58d8a5480aa</title><path class="cls-1" d="M18.91,4.23a4.16,4.16,0,0,0-1-1.56,4.62,4.62,0,0,0-1.55-1,7.7,7.7,0,0,0-2.13-.39c-.93,0-1.23,0-3.62,0s-2.68,0-3.62,0a7.63,7.63,0,0,0-2.12.39,4.52,4.52,0,0,0-1.55,1,4.24,4.24,0,0,0-1,1.56,6.26,6.26,0,0,0-.41,2.14c0,.92,0,1.22,0,3.6s0,2.68,0,3.61a6.26,6.26,0,0,0,.41,2.14,4.24,4.24,0,0,0,1,1.56,4.5,4.5,0,0,0,1.55,1A7,7,0,0,0,7,18.69c.94,0,1.24,0,3.62,0s2.69,0,3.62,0a7,7,0,0,0,2.13-.39,4.59,4.59,0,0,0,1.55-1,4.24,4.24,0,0,0,1-1.56,6.26,6.26,0,0,0,.41-2.14c0-.93.05-1.22.05-3.61s0-2.68-.05-3.6A6.26,6.26,0,0,0,18.91,4.23Zm-1.17,9.3a4.7,4.7,0,0,1-.31,1.61,2.72,2.72,0,0,1-.66,1,2.62,2.62,0,0,1-1,.63,4.18,4.18,0,0,1-1.63.34c-.93,0-1.2.05-3.54.05s-2.63,0-3.55-.05a4.09,4.09,0,0,1-1.62-.34,2.65,2.65,0,0,1-1-.63,2.47,2.47,0,0,1-.66-1,5,5,0,0,1-.31-1.61c0-.93-.05-1.22-.05-3.56s0-2.63.05-3.55a4.9,4.9,0,0,1,.31-1.61,2.64,2.64,0,0,1,.66-1,2.68,2.68,0,0,1,1-.64,4.27,4.27,0,0,1,1.62-.34c.93,0,1.21-.05,3.55-.05s2.62,0,3.54.05a4.36,4.36,0,0,1,1.63.34,2.64,2.64,0,0,1,1,.64,2.37,2.37,0,0,1,.66,1,4.65,4.65,0,0,1,.31,1.61c0,.92.05,1.21.05,3.55s0,2.63-.05,3.56ZM10.6,5.44A4.53,4.53,0,1,0,15.1,10v0a4.53,4.53,0,0,0-4.5-4.53Zm0,7.46A2.93,2.93,0,1,1,13.53,10,2.93,2.93,0,0,1,10.6,12.9Zm4.68-8.67a1,1,0,1,1-1,1.07,1,1,0,0,1,1-1.07Z"/></svg>