<svg id="Layer_1" data-name="Layer 1" xmlns="http://www.w3.org/2000/svg" viewBox="0 0 21.21 19.95"><defs><style>.cls-1{fill:#707582;}</style></defs><title>VectorSmartObject_d55282a5-29ce-4b19-85f7-b58d8a5480aa</title><path class="cls-1" d="M6.72,18.9A12.14,12.14,0,0,0,18.92,6.66V6.09a9.08,9.08,0,0,0,2.13-2.2,9,9,0,0,1-2.46.65A4.16,4.16,0,0,0,20.47,2.2a9.32,9.32,0,0,1-2.72,1,4.26,4.26,0,0,0-6-.23l0,0a4.33,4.33,0,0,0-1.24,4.13,12.26,12.26,0,0,1-8.84-4.5A4.28,4.28,0,0,0,2.94,8.39,4.05,4.05,0,0,1,1,7.88v0a4.35,4.35,0,0,0,3.44,4.23,4.49,4.49,0,0,1-1.93,0,4.35,4.35,0,0,0,4,3A8.74,8.74,0,0,1,1.18,17a8.6,8.6,0,0,1-1-.05A12,12,0,0,0,6.72,18.9"/></svg>